<?xml version="1.0" standalone="no"?>
<!DOCTYPE svg PUBLIC "-//W3C//DTD SVG 20010904//EN"
 "http://www.w3.org/TR/2001/REC-SVG-20010904/DTD/svg10.dtd">
<svg version="1.0" xmlns="http://www.w3.org/2000/svg"
 width="512.000000pt" height="512.000000pt" viewBox="0 0 512.000000 512.000000"
 preserveAspectRatio="xMidYMid meet">

<g transform="translate(0.000000,512.000000) scale(0.100000,-0.100000)"
fill="#000000" stroke="none">
<path d="M3055 3951 c-16 -4 -39 -13 -50 -19 -11 -6 -56 -27 -100 -47 -44 -20
-103 -47 -130 -60 -49 -23 -53 -23 -115 -9 -137 30 -198 36 -330 31 -137 -5
-173 -11 -315 -54 -292 -89 -564 -325 -700 -606 -30 -63 -14 -52 -215 -144
-154 -70 -182 -93 -206 -166 -18 -53 -19 -40 21 -227 8 -36 19 -92 24 -125 24
-154 54 -206 141 -243 38 -16 122 -11 146 9 17 14 44 5 44 -16 0 -27 70 -166
129 -255 87 -134 255 -292 380 -357 13 -7 40 -22 60 -32 272 -145 618 -168
925 -62 59 21 225 101 249 121 6 5 45 35 85 65 152 116 284 289 357 470 137
338 121 668 -46 998 -16 31 -29 61 -29 66 0 5 19 19 43 30 24 12 54 36 68 53
21 29 24 44 24 113 0 50 -5 86 -13 95 -7 8 -31 40 -54 70 -24 30 -48 60 -53
65 -6 6 -38 44 -70 85 -117 148 -167 176 -270 151z m15 -250 c20 -37 11 -50
-55 -81 -36 -17 -65 -34 -65 -38 0 -5 6 -17 14 -28 14 -19 15 -18 60 4 59 28
82 28 90 0 10 -41 7 -46 -49 -69 -58 -24 -64 -33 -41 -64 13 -18 16 -18 82 12
l69 31 17 -32 c16 -30 10 -56 -13 -56 -4 0 -45 -18 -91 -40 -46 -22 -88 -40
-93 -40 -11 0 -27 29 -63 110 -11 25 -37 80 -57 123 -36 76 -39 107 -13 107 7
1 49 18 93 40 93 45 101 46 115 21z m-600 -1 c11 -7 9 -11 -13 -19 -16 -6 -33
-11 -38 -11 -5 0 -9 -4 -9 -10 0 -5 -5 -10 -11 -10 -11 0 -49 -17 -194 -85
-177 -83 -204 -95 -214 -95 -6 0 -11 -4 -11 -10 0 -5 -5 -10 -11 -10 -6 0 -48
-17 -92 -39 -45 -21 -111 -52 -146 -67 -35 -16 -94 -43 -130 -60 -36 -18 -68
-28 -69 -23 -9 22 222 259 251 259 3 0 26 14 51 30 55 37 179 95 226 105 19 4
40 10 45 14 41 26 333 51 365 31z m299 -178 c33 -25 100 -159 101 -202 0 -56
-29 -91 -111 -133 -41 -20 -79 -37 -84 -37 -10 0 -35 49 -128 250 -22 48 -31
76 -23 79 6 2 43 19 81 38 77 37 120 38 164 5z m-381 -27 c16 -35 17 -34 -24
-51 -40 -17 -49 -12 -59 28 -6 23 -3 29 16 37 39 16 55 12 67 -14z m58 -125
c13 -25 37 -76 55 -115 17 -38 40 -88 50 -109 11 -22 19 -41 19 -43 0 -6 -67
-33 -80 -33 -5 0 -10 4 -10 10 0 5 -25 62 -56 127 -82 173 -83 176 -77 186 7
12 45 26 62 24 8 -1 25 -22 37 -47z m-177 -56 c3 -3 0 -17 -5 -31 -7 -21 -19
-30 -49 -37 -43 -10 -65 -27 -65 -49 0 -21 17 -25 65 -16 107 21 154 -5 163
-89 4 -43 1 -52 -24 -79 -36 -37 -82 -60 -137 -68 -59 -8 -74 4 -56 44 8 17
21 31 30 31 25 0 84 27 99 45 11 13 11 19 -3 32 -15 15 -20 15 -70 -1 -62 -20
-93 -12 -126 30 -14 18 -21 41 -21 72 0 38 5 49 35 78 45 42 136 63 164 38z
m-299 -126 c-4 -18 -12 -45 -18 -59 -6 -14 -12 -41 -14 -60 -3 -33 0 -36 93
-99 54 -36 95 -68 92 -73 -2 -4 -21 -16 -41 -26 l-37 -19 -70 49 c-60 42 -71
46 -76 31 -7 -19 6 -65 28 -98 12 -19 11 -23 -10 -37 -55 -36 -64 -28 -127
118 -13 28 -35 77 -52 109 -16 33 -27 65 -24 72 6 15 60 34 72 25 5 -3 18 -26
30 -51 l21 -44 16 49 c8 28 18 62 21 76 4 19 19 33 48 48 56 27 57 27 48 -11z
m1307 -15 c46 -78 95 -214 114 -318 16 -89 17 -270 1 -355 -30 -160 -97 -321
-179 -427 -18 -23 -33 -44 -33 -47 0 -9 -98 -105 -155 -152 -87 -71 -205 -137
-312 -175 -231 -81 -531 -70 -740 26 -17 8 -34 15 -37 15 -3 0 -40 21 -83 46
-120 71 -213 154 -298 264 -54 70 -59 78 -100 161 -15 30 -33 66 -41 81 -33
62 -37 58 231 183 39 18 109 51 157 74 48 22 92 41 97 41 6 0 11 5 11 10 0 6
5 10 11 10 12 0 34 10 174 75 192 91 225 105 235 105 5 0 10 5 10 10 0 6 5 10
11 10 12 0 34 10 174 75 192 91 225 105 235 105 5 0 10 5 10 10 0 6 5 10 11
10 5 0 34 11 62 24 143 66 259 120 322 151 39 19 73 34 77 34 3 1 19 -20 35
-46z m-1606 -295 l130 -131 -28 -18 c-34 -23 -62 -24 -69 -4 -8 20 -23 19 -78
-6 -41 -18 -47 -24 -44 -47 2 -20 -4 -31 -25 -44 -47 -31 -54 -25 -60 55 -3
39 -11 123 -17 185 -11 106 -10 115 7 128 10 7 26 14 36 14 10 0 76 -59 148
-132z m-311 23 c17 -33 12 -47 -26 -64 -19 -10 -33 -21 -32 -25 2 -4 9 -18 15
-32 7 -14 30 -64 52 -112 23 -47 41 -92 41 -100 0 -15 -58 -41 -72 -32 -8 5
-68 127 -102 208 -17 40 -23 43 -52 21 -26 -19 -44 -19 -60 3 -26 33 -16 48
54 82 172 82 166 81 182 51z"/>
<path d="M2658 3453 c-27 -7 -22 -34 20 -122 l38 -79 32 20 c38 24 40 42 11
106 -35 77 -50 88 -101 75z"/>
<path d="M2940 2933 c-26 -8 -63 -24 -108 -47 -108 -53 -151 -171 -100 -274
48 -95 134 -123 257 -83 78 26 84 26 104 3 22 -25 21 -44 -3 -65 -30 -25 -119
-57 -160 -57 -34 0 -37 -3 -51 -47 -9 -27 -19 -56 -23 -65 -6 -14 -1 -18 29
-24 96 -18 228 18 303 81 40 33 82 113 82 154 0 42 -36 120 -71 153 -56 54
-108 60 -210 28 -87 -28 -113 -24 -117 16 -4 43 38 73 112 81 50 5 54 8 69 42
9 21 19 51 23 68 5 26 3 31 -18 36 -27 8 -96 8 -118 0z"/>
<path d="M2367 2672 c-27 -14 -65 -46 -85 -70 -36 -44 -37 -47 -37 -131 0 -79
3 -92 38 -162 20 -42 37 -82 37 -88 0 -6 4 -11 8 -11 4 0 12 -13 18 -28 6 -15
32 -46 59 -68 48 -39 49 -39 134 -39 73 0 92 4 126 24 60 37 103 89 121 148
16 50 16 57 -1 111 -24 78 -111 255 -138 280 -75 69 -190 83 -280 34z m156
-143 c24 -27 85 -153 97 -201 15 -53 4 -82 -37 -102 -38 -18 -49 -14 -85 29
-35 40 -98 185 -98 224 0 63 83 97 123 50z"/>
<path d="M1980 2481 c-30 -10 -99 -39 -152 -64 -53 -26 -102 -47 -107 -47 -15
0 -14 -17 3 -48 17 -32 101 -208 146 -307 84 -183 104 -225 112 -225 5 0 38
14 74 30 75 35 74 29 18 146 -19 38 -34 75 -34 82 0 6 24 23 53 37 64 30 96
57 126 108 20 32 23 48 19 109 -2 44 -9 73 -16 76 -7 2 -12 10 -12 17 0 22
-67 73 -110 85 -23 6 -47 13 -53 15 -7 2 -37 -5 -67 -14z m75 -157 c53 -35 16
-104 -63 -120 -27 -5 -30 -3 -46 35 -21 53 -20 71 2 71 10 0 27 7 38 15 25 19
39 19 69 -1z"/>
<path d="M1570 2822 c0 -44 11 -52 42 -28 16 12 15 15 -12 41 l-30 29 0 -42z"/>
<path d="M3786 2385 c-6 -23 -10 -25 -41 -19 -19 3 -35 2 -35 -2 0 -5 -3 -19
-6 -30 -5 -17 0 -24 25 -32 20 -7 31 -18 31 -30 0 -18 18 -32 41 -32 5 0 9 7
9 15 0 18 51 21 81 4 28 -15 106 -16 119 -3 6 6 17 29 25 50 11 34 11 40 -4
51 -21 16 -41 16 -41 0 0 -7 -6 -21 -13 -31 -12 -17 -16 -17 -74 1 -57 16 -62
20 -65 48 -4 41 -42 48 -52 10z"/>
<path d="M3739 2182 c-25 -26 -49 -78 -49 -105 0 -33 43 -77 75 -77 25 0 59
29 96 81 10 15 21 20 32 16 27 -10 20 -50 -12 -72 -16 -10 -31 -29 -34 -42 -6
-33 34 -31 74 5 64 58 43 182 -31 182 -22 0 -38 -12 -70 -50 -41 -48 -69 -63
-71 -37 -3 27 4 41 32 69 16 16 29 34 29 39 0 15 -54 9 -71 -9z"/>
<path d="M3621 1938 c-23 -15 -39 -38 -49 -66 -13 -39 -13 -48 3 -82 26 -57
69 -85 133 -85 48 0 57 4 82 32 39 44 47 92 24 139 -39 77 -129 106 -193 62z
m97 -52 c32 -16 56 -55 50 -82 -9 -47 -90 -48 -128 -2 -24 29 -25 56 -3 80 19
22 44 23 81 4z"/>
<path d="M3387 1822 c-24 -27 -22 -34 23 -76 22 -20 40 -40 40 -45 0 -4 -15
-14 -33 -23 -58 -28 -67 -116 -18 -175 28 -34 97 -66 125 -59 35 9 86 54 86
77 0 12 7 19 18 19 10 0 24 11 32 24 12 24 8 29 -115 148 -69 68 -130 124
-134 126 -4 1 -15 -6 -24 -16z m166 -210 c15 -14 27 -32 27 -41 0 -23 -41 -61
-67 -61 -69 0 -109 111 -50 138 26 11 49 2 90 -36z"/>
<path d="M3086 1554 c-21 -21 -20 -51 2 -63 36 -19 70 37 40 67 -16 16 -23 15
-42 -4z"/>
<path d="M3137 1453 c-14 -17 -13 -21 12 -58 15 -22 44 -68 65 -102 20 -35 41
-63 46 -63 4 0 18 8 30 18 l22 18 -51 77 c-28 42 -51 79 -51 82 0 10 -35 45
-46 45 -6 0 -18 -8 -27 -17z"/>
<path d="M2860 1443 c-30 -11 -39 -24 -30 -41 5 -10 19 -39 31 -67 11 -27 31
-72 44 -100 12 -27 33 -73 45 -102 l22 -52 28 14 c27 14 27 16 15 52 -21 61
-5 78 43 44 37 -25 66 -33 96 -25 41 10 31 26 -44 69 -75 43 -75 43 -44 113
23 51 16 65 -23 45 -18 -8 -33 -21 -33 -27 0 -18 -34 -96 -42 -96 -8 0 -24 33
-67 133 -11 26 -21 47 -23 46 -2 0 -10 -3 -18 -6z"/>
<path d="M1656 1349 c-3 -34 -6 -95 -6 -136 0 -71 -1 -74 -36 -109 -35 -33
-36 -36 -18 -49 11 -8 24 -15 29 -15 6 0 70 60 143 133 l132 132 -30 14 c-30
13 -31 12 -80 -41 -27 -29 -50 -56 -50 -60 0 -5 -7 -8 -15 -8 -17 0 -18 31 -6
118 8 55 4 64 -35 76 -19 6 -22 2 -28 -55z"/>
<path d="M2209 1358 c0 -2 -4 -39 -10 -83 -21 -183 -28 -280 -20 -288 5 -5 19
-7 32 -5 23 3 25 8 38 138 8 74 14 158 15 185 1 47 0 50 -26 53 -16 2 -28 2
-29 0z"/>
<path d="M2492 1352 c-8 -6 -12 -28 -10 -68 3 -48 0 -58 -12 -55 -50 13 -66
12 -95 -3 -81 -44 -88 -172 -11 -238 16 -14 32 -17 66 -13 25 3 65 6 90 7 l45
3 -3 75 c-11 252 -16 295 -37 298 -11 1 -26 -2 -33 -6z m-8 -194 c21 -29 20
-92 0 -112 -20 -21 -63 -20 -86 1 -23 21 -24 89 -1 115 23 25 68 23 87 -4z"/>
<path d="M1944 1271 c-41 -18 -69 -71 -69 -131 0 -62 15 -85 72 -114 90 -46
179 28 170 142 -5 71 -36 103 -104 108 -26 2 -58 0 -69 -5z m96 -61 c25 -25
25 -66 0 -107 -22 -37 -53 -43 -82 -16 -25 22 -24 83 3 117 24 31 52 33 79 6z"/>
<path d="M2682 1264 c-30 -16 -52 -47 -52 -75 0 -14 41 -1 66 22 35 32 84 19
84 -23 0 -14 -8 -18 -42 -18 -80 -1 -124 -75 -78 -133 17 -22 29 -27 63 -27
23 0 51 7 61 15 11 8 34 15 52 15 18 0 35 4 38 9 3 5 -1 31 -9 57 -8 27 -19
67 -25 89 -6 22 -17 48 -25 59 -20 26 -91 31 -133 10z m102 -137 c27 -20 13
-54 -26 -62 -56 -13 -79 43 -26 65 31 12 32 12 52 -3z"/>
</g>
</svg>
